<?xml version="1.0" encoding="utf-8"?>
<!-- Generator: Adobe Illustrator 27.0.0, SVG Export Plug-In . SVG Version: 6.00 Build 0)  -->
<svg version="1.1" id="Livello_1" xmlns="http://www.w3.org/2000/svg" xmlns:xlink="http://www.w3.org/1999/xlink" x="0px" y="0px"
	 viewBox="0 0 595.3 841.9" style="enable-background:new 0 0 595.3 841.9;" xml:space="preserve">
<style type="text/css">
	.st0{fill:#0D0D0F;}
	.st1{fill:#040405;}
	.st2{fill:#ED9D1C;}
	.st3{fill:#EA8728;}
	.st4{fill:#050507;}
	.st5{fill:#F8EFDF;}
	.st6{fill:#0A090B;}
	.st7{fill:#F0D6AA;}
	.st8{fill:#EBDAA9;}
	.st9{fill:#CED3D7;}
	.st10{fill:#4C9037;}
	.st11{fill:#4F2614;}
	.st12{fill:#AA351D;}
	.st13{fill:#4F4B4F;}
</style>
<path class="st0" d="M457.4,414.7c2.4,0.5,4.8,1.2,7.2,1.6c2.4,0.5,4.8,0.7,7.2,0.8c2.5,0.1,5,0.5,7.5,0.6c4.9,0.3,9.8,0.5,14.6,0
	c3.2-0.3,6.4-1.1,9.6-1.4c-5.4,2.3-10.7,4.7-16.3,7.1c3.4,1.2,6.4,2.3,9.5,3.4c10.4,3.8,20.8,7.5,31.1,11.3c0.7,0.3,1.3,0.3,2,0
	c13.1-5.9,26.2-11.7,39.2-17.5c0.3-0.2,0.7-0.2,1.1-0.6c-13-4.2-26-8.4-39.2-12.6c0.8-0.6,1-1.3,1.1-2.1c3.6,1.1,7.1,2.2,10.6,3.4
	c10.3,3.3,20.7,6.6,31,9.9c0.2,0.1,0.5,0.1,0.7,0.2c0.9,0.5,0.9,1.6,0,2.1c-0.5,0.3-1.1,0.4-1.6,0.7c-43.5,19.3-86.9,38.6-130.4,58
	c-44,19.6-88,39.2-132,58.8c-1.8,0.8-3.2,0.8-5,0.1c-30-10.6-59.9-21.1-89.9-31.7c-16.6-5.8-33.2-11.7-49.8-17.5
	c-14.7-5.2-29.5-10.4-44.2-15.6c-32.1-11.3-64.1-22.5-96.2-33.8c-0.5-0.2-1-0.4-1.5-0.6c-0.9-0.6-0.9-1.5,0-2.1
	c0.3-0.2,0.7-0.3,1-0.5c13.6-6.1,27.2-12.1,40.8-18.2c11.6-5.2,23.2-10.3,34.9-15.5c0.3-0.1,0.7-0.3,1.2-0.5c0,1-0.1,1.8-0.2,2.7
	c-0.2,1.6-0.2,3.2,0.6,4.6c0.8,1.3,1.8,2.2,3.3,2.6c3.1,1,6.2,1.4,9.4,1.7c4.1,0.4,8.1,0.5,12.2,0.3c4.7-0.2,9.4-0.6,14-1.9
	c2.4-0.7,3.9-1.9,4.5-4.4c0.1-0.2,0.2-0.5,0.2-0.7c0.1-0.8,0.5-0.8,1.2-0.7c3.9,0.8,7.5,2.5,11.2,3.8c0.6,0.2,1.1,0.4,1.6,0.6
	c1.2,0.6,2.4,0.9,3.6,0c0.6-0.4,1.2-0.2,1.8-0.1c4.3,0.5,8.6,0.9,12.9,1.1c4.6,0.3,9.2,0.4,13.8,0.3c2.2-0.1,4.4-0.2,6.7-0.4
	c0.3,5.4,0.7,10.7,1,16c-0.6,0.3-1.1-0.1-1.5-0.3c-11.6-4.3-23.2-8.5-34.7-12.9c-1.1-0.4-1.9-0.4-3,0.1
	c-13.8,6.2-27.5,12.4-41.3,18.6c-0.3,0.2-0.7,0.3-1,0.5c0.2,0.5,0.6,0.5,1,0.6c14.2,5.1,28.4,10.2,42.6,15.3c0.8,0.3,1.4,0.2,2-0.1
	c12-5.7,23.9-11.5,35.9-17.2c1-0.5,1.7-0.5,2.6,0.1c4.1,2.7,8.8,4,13.6,5c4,0.8,8.1,1.1,12.2,1.5c2.3,0.2,4.5,0.2,6.8,0
	c0.7-0.1,1.3,0.2,2,0.4c6.1,2.2,12.1,4.5,18.2,6.7c0.7,0.3,1.4,0.4,2.2,0.1c13.7-6,27.4-12,41.1-18c0.2-0.1,0.4-0.2,0.8-0.4
	c-1.4-0.6-4.1-1.8-5.3-2.3c0.5,0.1,1.4,0.3,1.8,0.4c3.3,0.6,6.6,1.1,9.8,1.9c2,0.5,3.8,1.4,5.7,2.1c12.2,4.7,24.5,9.4,36.7,14.1
	c0.9,0.3,1.6,0.4,2.5,0c13-5.7,25.9-11.4,38.9-17.1c0.3-0.1,0.6-0.3,1-0.5c-1.1-0.8-2.4-0.9-3.5-1.5c0.2-0.5,0.7-0.4,1-0.5
	c1.4-0.4,2.8-0.6,4.2-1.2c0.5-0.2,1.1-0.2,1.7-0.1c2.2,0.6,4.4,1,7,1.3c-1.4,0.6-2.5,1.2-3.9,1.8c1.2,0.5,2.1,0.8,3.1,1.2
	c12.6,4.7,25.2,9.4,37.8,14.1c0.9,0.3,1.6,0.4,2.5,0c13.1-5.7,26.2-11.4,39.4-17.1c0.4-0.2,0.9-0.2,1.1-0.7
	c-2.6-0.9-5.1-1.9-7.7-2.8c-5.3-1.9-10.7-3.9-16-5.8C456.9,414.8,457.2,414.8,457.4,414.7z M300.7,465.7
	c-14.5-5.4-29-10.7-43.5-16.1c-0.6-0.2-1.2-0.2-1.8,0c-13.8,6-27.6,12.1-41.4,18.1c-0.2,0.1-0.7,0.1-0.7,0.6
	c0.1,0.1,0.2,0.1,0.4,0.2c14.6,5.2,29.1,10.4,43.7,15.6c0.8,0.3,1.4,0.2,2.2-0.2c13.3-5.9,26.6-11.7,39.8-17.6
	C299.9,466.3,300.4,466.2,300.7,465.7z M391.8,499.4c-0.2-0.1-0.3-0.1-0.4-0.1c-13.9-5.1-27.8-10.3-41.6-15.4
	c-0.8-0.3-1.4-0.1-2,0.2c-13.1,5.7-26.2,11.4-39.3,17c-0.5,0.2-1,0.3-1.4,0.7c0.4,0.1,0.8,0.3,1.1,0.4c10,3.6,20,7.1,29.9,10.7
	c3.8,1.3,7.6,2.6,11.3,4.1c1.3,0.5,2.3,0.4,3.5-0.1c12.5-5.6,25-11.1,37.5-16.7C390.9,500,391.4,499.9,391.8,499.4z M396.7,462.8
	c5.8,2.2,11.5,4.4,17.1,6.6c7.8,3,15.6,6,23.5,9c0.9,0.4,1.6,0.2,2.5-0.1c13.2-5.9,26.5-11.8,39.8-17.7c0.3-0.1,0.6-0.1,0.8-0.5
	c-0.3-0.3-0.7-0.4-1-0.5c-13-4.9-26-9.7-39-14.6c-1-0.4-1.8-0.3-2.7,0.1c-10,4.4-20,8.7-30,13C404,459.6,400.5,461.2,396.7,462.8z
	 M27.5,438.2c0.4,0.2,0.6,0.3,0.8,0.4c13.6,4.8,27.2,9.5,40.8,14.3c0.7,0.2,1.2,0.2,1.8-0.1c13.3-6,26.5-11.9,39.8-17.9
	c0.3-0.1,0.7-0.1,0.7-0.6c-13.5-4.8-27-9.6-40.4-14.5c-0.9-0.3-1.7-0.3-2.6,0.1c-4.3,2-8.7,3.9-13.1,5.8
	C46,429.9,36.8,434,27.5,438.2z M123.2,471.8c0.4,0.3,0.7,0.4,1.1,0.5c13.2,4.6,26.4,9.3,39.5,13.9c0.8,0.3,1.5,0.3,2.4-0.1
	c13.1-5.7,26.1-11.4,39.2-17.1c0.4-0.2,0.9-0.2,1.1-0.7c-0.1,0-0.2-0.1-0.4-0.1c-14-5-28-10-42-15.1c-0.8-0.3-1.3-0.2-2,0.1
	c-9.1,4.4-18.3,8.8-27.4,13.1C130.8,468.2,127,470,123.2,471.8z M390.1,462.8c-0.2-0.1-0.4-0.2-0.6-0.2c-13.1-5-26.2-10-39.3-15.1
	c-0.9-0.3-1.6-0.2-2.3,0.1c-13.1,5.8-26.2,11.6-39.3,17.3c-0.4,0.2-0.8,0.2-1.1,0.6c0.2,0.1,0.3,0.2,0.4,0.2
	c13.4,5,26.7,9.9,40.1,14.9c0.7,0.3,1.3,0.1,1.9-0.2c13-5.7,26.1-11.3,39.1-17C389.4,463.4,389.9,463.4,390.1,462.8z M217.8,505.2
	c10.3,3.6,20.6,7.3,30.9,10.9c3.4,1.2,6.8,2.4,10.2,3.6c0.4,0.1,0.7,0.4,1.1,0.1c1.1-1,2.5-1.3,3.8-1.8c8.6-3.8,17.2-7.5,25.9-11.2
	c3.6-1.5,7.1-3.1,10.7-4.7c-0.3-0.5-0.8-0.5-1.2-0.6c-13.1-4.7-26.2-9.4-39.3-14.1c-0.9-0.3-1.5-0.2-2.3,0.1
	c-12.8,5.7-25.7,11.3-38.5,17C218.6,504.7,218.1,504.7,217.8,505.2z"/>
<path class="st1" d="M452.3,323.5c-0.8-1-1.5-2.1-2.5-3c-1.7-1.6-3.6-2.9-5.6-4.1c-1.1-0.7-1.1-0.7-0.8-1.9
	c2.3-8,5.8-15.4,11.3-21.6c4.6-5.2,10.1-9.1,16.9-11c1.5-0.4,2.7-0.2,3.9,0.9c0.5,0.4,0.9,0.9,1.4,1.3c0.6,0.5,0.8,0.5,1.1-0.3
	c0.9-2.3,2.2-4.3,3.8-6.2c1.4-1.7,3.1-3.1,5.3-3.8c1.2-0.4,1.8,0,2,1.2c0.1,1,0.1,1.9,0.1,2.9c0,2.1-0.3,4.2-0.7,6.3
	c-0.1,0.7,0.1,1.1,0.7,1.5c2.2,1.3,4.3,2.6,6.5,3.7c1.4,0.7,2.8,1.5,4,2.6c0.9,0.9,1.6,1.8,1.5,3.1c0,0.5,0.2,1,0.5,1.5
	c0.6,1,1.4,2,2.3,2.8c5.9,5.5,11.9,10.8,17.7,16.4c0.7,0.7,1.6,1.3,2.3,2c0.3,0.4,0.6,0.7,0.5,1.3c-0.6,4-1.7,7.8-4.1,11
	c-4.1,5.4-11.9,5.5-16.2,0.3c-0.8-1-1.5-2.1-2-3.3c-0.3-0.8-0.8-1.1-1.6-1.1c-2.5,0-5,0-7.5,0c-0.7,0-1.5-0.1-2.2-0.1
	c-0.8,0-1.7,0.2-2.1,1c-0.4,0.9-0.1,1.6,0.4,2.3c0.4,0.5,0.8,0.8,1.3,1.2c11.6,8.3,19.3,19.5,24.1,32.7c1,2.9,1.8,5.8,2.2,8.8
	c0.1,1.2,0,1.7-1.2,2.3c-1.5,0.7-3,1.4-4.6,1.8c-3.4,0.7-6.8,1.5-10.2,2c-6.1,0.9-12.2,1.1-18.4,1.1c-1.3,0-2.6-0.2-3.9-0.2
	c-0.7,0-0.9-0.3-0.8-1c0.5-3,0.7-6,0.6-9c-0.2-5.9-1.4-11.5-4.1-16.8c-1.7-3.3-3.9-6.2-6.9-8.5c-3.6-2.6-7.6-3.8-12-3
	c-0.1,0-0.2,0-0.4-0.1c-0.1-2-0.2-4-0.2-6c0-6.5,0.5-12.9,1.9-19.1c1.4-5.9,3.4-11.5,7-16.4c1.8-2.5,4-4.6,6.7-6.1
	c1.1-0.6,1.4-1.4,1-2.1c-0.5-0.7-1.1-0.7-2.3-0.1c-2.9,1.7-5.2,4-7.2,6.6c-3.3,4.4-5.4,9.4-6.9,14.6c-1,3.6-1.7,7.2-2.1,11
	C452.6,323.2,452.7,323.4,452.3,323.5z"/>
<path class="st2" d="M124.2,292c8.7,0,17,0.2,25.7,0.2c0.2,0,0.4,0,0.6,0c1,0,1,0,1.1,1c0.1,5.2-0.4,10.5-1.1,15.7
	c-0.9,7.6-2.9,14.9-4.4,22.3c-1.2,5.9-2,11.8-2.8,17.8c-0.5,4.1-1,8.2-1.2,12.3c-0.3,4.9-1.2,9.8-1.3,14.7c-0.1,3.9,0,7.7,0,11.6
	c0,0.4-0.1,0.8,0,1.2c0.1,0.8-0.3,1.2-1,1.5c-3,1.1-6.1,1.7-9.3,2.1c-5.4,0.6-10.8,0.5-16.2-0.5c-2.4-0.5-4.7-1.1-6.9-2.2
	c-1.4-0.7-1.4-0.7-1.3-2.3c0.2-2.8,0-5.6-0.1-8.4c-0.2-6.2-0.7-12.5-0.7-18.7c0-5.9-1-11.6-2.1-17.4c-1.2-6.6-2.8-13.2-4-19.8
	c-0.5-2.6-0.6-5.4-1-8c-0.7-4.7-1.1-9.4-1.3-14.1c-0.1-2.6-0.2-4.2-0.4-6.8c-0.1-0.8,0-2,0.9-2.1c0.3,0,0.3,0,0.7,0
	c8.7,0,17.3,0,26,0C124,292,124.2,292,124.2,292z"/>
<path class="st2" d="M418.9,414.2c-8,0-14.7-0.4-21.4-1.8c-1.7-0.3-3.4-0.8-5-1.4c-0.6-0.2-0.9-0.6-0.8-1.3c0.2-1.3,0.4-2.7,0.7-4
	c0.8-3.4,0.5-6.8,0.5-10.3c0-1.7-0.1-3.5,0-5.2c0-4.2-0.1-8.3-0.5-12.5c-0.4-4-1.1-8-1.9-12c-0.8-4.2-1.8-8.3-2.3-12.5
	c-0.3-2.7-0.8-5.4-1.1-8c-0.3-2.6-0.4-5.2-0.4-7.8c0-1.4,0.2-1.5,1.6-1.6c4.8-0.2,9.6-0.4,14.4-0.2c5.6,0.2,11.3,1,16.8,2.4
	c1,0.2,2,0.6,2.9,1.1c2,1.1,3.2,2.7,3.1,5.1c0,1.4-0.4,2.8-0.4,4.2c0,1.2-0.1,2.4,0,3.6c0.2,1.5,0.8,2.9,2,3.7
	c2.4,1.6,5,0.2,5.9-1.7c0.8-1.9,0.8-3.9,0.4-5.8c-0.2-1.2-0.6-2.4-1-3.6c-0.4-1.2,0-2,1-2.3c0.9-0.3,1.4-0.1,1.8,0.8
	c0.6,1.4,1,3,1,4.5c0,1-0.1,1.9-0.2,2.9c-0.3,2.4-0.3,4.7,0.2,7.1c0.5,2.3,2.4,3.5,4.4,2.8c1.3-0.4,1.9-1.4,2.2-2.6
	c0.3-1.5,0.4-3.1,0.4-4.6c-0.1-2.3-0.6-4.6-1-6.9c-0.2-0.9-0.2-1.8-0.2-2.7c0.1-1.6,1.3-2.2,2.6-1.2c1.1,0.8,2,2,3,3
	c0.4,0.4,0.3,0.9,0.3,1.4c0,3.2-0.1,6.4-0.2,9.6c-0.1,3.5-0.3,7.1-0.5,10.6c-0.5,9.8-0.8,19.6-1.2,29.4c-0.1,3.1-0.3,6.3,0,9.4
	c0.1,1,0.2,2-0.3,3c-0.6,1.3-1.7,2.1-3,2.6c-1.9,0.8-3.9,1.3-6,1.7C430.4,413.9,424.1,414.2,418.9,414.2z"/>
<path class="st1" d="M221,324.1c12.2,2.4,24.2,1.6,36.2-1.5c0.2,0.9-0.1,1.7-0.2,2.5c-0.2,5.3-0.3,10.5,0.1,15.8
	c0.2,3.2,0.3,6.5,0.7,9.7c0.7,4.7,0.6,9.5,1.5,14.1c1.1,5.9,2.3,11.8,3.6,17.6c1.5,6.7,3.6,13.2,5.5,19.8c0.4,1.2,0.4,1.2-0.8,1.9
	c-3.4,1.8-7,2.9-10.8,3.7c-7.9,1.7-16,2.3-24.1,2c-6.6-0.3-13.1-1-19.4-3.1c-1.6-0.5-3.1-1.1-4.5-1.9c-0.6-0.3-0.8-0.5-0.5-1.2
	c2.5-4.7,3.8-9.8,5.1-14.9c1.1-4.6,2.1-9.2,3-13.9c0.4-2.3,0.6-4.7,0.9-7c0.4-3.2,0.9-6.4,1.5-9.6c0.6-2.9,0.7-5.8,1.1-8.8
	c0.5-4,0.9-8,1.1-12s0.4-8-0.2-12c-0.1-0.4-0.1-0.8-0.1-1.2C220.9,324.2,221,324.1,221,324.1z"/>
<path class="st1" d="M181.2,367c-11.7-0.2-22-0.5-32.6-4.4c-1.2-0.5-1.1-0.5-1-1.8c1-9.6,9-16.1,12.5-24.7c2.7-6.4,3-13.4,4-20.2
	c0.8-9.4,0.6-18.9,0.9-28.2c0.1-3.1,0.1-6.2-0.1-9.3c-0.1-0.9,0.1-1,0.9-0.8c4.1,1.2,8.3,1.5,12.5,1.6c4.9,0,9.8,0.4,14.6-0.7
	c0.6-0.2,0.8,0,0.8,0.6c0,12,0.7,24,1.9,35.9c0.6,6.8,0.9,13.8,3.2,20.3c2.4,5.9,6.3,11.2,9.2,16.9c0.9,1.8,3.9,9.3,1.9,10.4
	C201.3,366.7,190.1,366.6,181.2,367z"/>
<path class="st3" d="M327.3,382.9c-10.7,0-21.2-1-31.6-3.5c-3.5-0.9-7-1.9-10.3-3.3c-1.2-0.5-1.2-0.5-1.2-1.8c0.1-3,1-5.8,2.3-8.5
	c2.8-5.6,7-9.9,12.3-13.2c6.3-4,13.2-6.5,20.7-7.5c9-1.2,17.8-0.3,26.4,2.9c2.8,1,5.1,2.7,7.6,4.2c3.7,2.3,7,5.2,9.7,8.6
	c3.1,3.8,5,8.1,5.5,13c0,0.2,0,0.5,0,0.7c0,1.1-0.4,1.8-1.5,2.2c-4,1.5-8.1,2.6-12.2,3.5C345.9,382.1,336.6,382.9,327.3,382.9z"/>
<path class="st4" d="M382.3,315c0,3.8,0,7.5,0,11.3s0.1,7.5,0.5,11.3c0.4,4.8,0.9,9.6,1.7,14.4c0.6,3.8,1.7,7.5,2.4,11.3
	c1,4.8,2,9.5,2.7,14.4c0.1,1,0.1,1.9,0.1,2.9c0,2.2,0.2,4.4,0.1,6.7c0,0.7-0.3,1-0.9,1.2c-1.8,0.5-3.6,1-5.5,1.4
	c-2.7,0.5-5.4,0.9-8.2,0.7c-1.1-0.1-1.2-0.2-1.2-1.2c0-1.9-0.4-3.8-1.9-5.1c-0.3-0.3-0.4-0.6-0.2-1c0.6-1.8,0.3-3.4-0.5-5
	c-0.3-0.6-0.4-1.2-0.2-1.8c0.9-3.3,0.2-6.4-1.1-9.5c-3.5-7.9-9.2-13.7-16.7-17.9c-0.3-0.2-0.6-0.3-0.9-0.5c-1.5-0.9-1.3-0.7-1.2-2.3
	c0.5-6.2,1.5-12.4,1.8-18.6c0.3-7.2,0.6-14.5,0.6-21.8c0-1-0.1-2-0.2-3c-0.2-2.6,0.1-5.1,0.1-7.7c0-0.6,0.3-0.8,0.9-0.8
	c7.6,0.8,15.2,0.7,22.9,0.4c1.3,0,2.5-0.1,3.8-0.3c0.9-0.1,1.1,0,1.1,1.1c0,3.6,0,7.2,0,10.7C382.3,309.2,382.3,312.1,382.3,315
	C382.3,315,382.3,315,382.3,315z"/>
<path class="st4" d="M185.2,390.1c-3.6,0-6.5,0.1-9.4-0.1c-2.5-0.2-5-0.5-7.5-0.7c-2.2-0.2-4.3-0.4-6.5-0.6
	c-1.1-0.1-2.2-0.4-3.3-0.6c-3.5-0.7-7.1-1.3-10.5-2.6c-1.2-0.5-2.5-0.6-3.7-1.1c-0.6-0.2-0.8-0.6-0.8-1.2c0-4.1,0-8.2,0.4-12.3
	c0.1-1.7,0.3-3.5,0.6-5.2c0.2-1.3,0.8-1.7,1.9-1.1c3.4,1.6,7,2.5,10.6,3.2c9.9,1.8,20,2.3,30,1.8c6-0.3,12-0.9,17.9-2.4
	c2.2-0.6,4.4-1.2,6.3-2.5c0.6-0.4,1-0.2,1.3,0.2c0,0,0.1,0.1,0.1,0.1c1.4,1.3,1.9,2.7,1.6,4.7c-0.7,5.3-1.7,10.6-2.8,15.8
	c-0.1,0.6-0.5,0.9-1,1.1c-1.6,0.8-3.2,1.2-4.9,1.6C198.7,389.8,191.6,390.3,185.2,390.1z"/>
<path class="st5" d="M399,332.9c-1.7,0-3.4,0-5.1,0c-1.8,0-3.5,0.4-5.3,0.3c-1.6-0.1-1.8-0.2-1.8-1.9c-0.1-2.7,0.4-5.2,1.8-7.5
	c1.5-2.5,3.7-4.3,6.2-5.7c3.5-2,7.4-3,11.4-3.6c1.8-0.3,3.6-0.5,5.3-0.5c3.2,0.1,6.5,0,9.7,0.3c2.3,0.2,4.6,0.4,6.9,0.7
	c3.4,0.5,6.8,1.1,10.2,1.8c2.5,0.5,4.8,1.5,6.9,2.8c3.5,2.2,5.7,5.6,6.9,9.5c1.3,3.9,0.8,7.8-0.9,11.5c-0.3,0.7-0.9,1.3-1.4,1.8
	c-0.4,0.5-0.8,0.4-1.2,0c-0.8-0.9-1.6-1.8-2.5-2.6c-2.1-1.7-5.9-1.5-6.7,2.3c-0.4,2,0,3.9,0.4,5.8c0.3,1.6,0.4,3.3,0.7,5
	c0.2,1.3-0.3,2.5-0.3,3.7c0,0.4-0.2,0.6-0.6,0.7c-0.4,0-0.6-0.4-0.6-0.7c-0.1-0.9-0.4-1.8-0.4-2.7c-0.1-2.5,0.4-4.9,0.3-7.4
	c-0.1-1.9-0.4-3.8-1.2-5.4c-1-2.1-4-2.9-6.1-1.2c-1.8,1.3-2.4,3.3-1.6,5.3c0.7,1.8,1.2,3.6,1.1,5.6c0,0.6-0.2,1.3-0.4,1.8
	c-0.5,0.9-1.7,1-2.2,0.1c-0.3-0.5-0.6-1-0.6-1.6c0.1-1.4,0.1-2.8,0.2-4.2c0.2-2.4,0.4-4.8-0.8-7.1c-0.9-1.7-2.2-2.8-4-3.6
	c-2.8-1.2-5.7-1.7-8.6-2.3c-2.9-0.6-5.9-0.7-8.9-1.1c-1.7-0.2-3.5,0-5.2-0.1C400,332.9,399.5,332.9,399,332.9z"/>
<path class="st4" d="M262.5,322.3c7,1.5,13.9,1.6,20.9,0.9c0.4,11.4,0.3,23.1,4.1,34c0.7,1.1,0.3,1.9-0.4,2.8
	c-3.4,4.5-6.1,10-5.5,15.8c0.1,0.4-0.2,1.4-0.6,1.9c-1.5,2.1-1.9,1.7-4.3,2c-2.6,0.2-4.9,0.5-7.3,0.5c-1.4,0-4.1,0.3-4.6-1.2
	c-1.4-5.5-2.6-11-3.4-16.6c-0.4-4.6-1.7-9.2-1.6-13.8C263,340.1,262.1,331.1,262.5,322.3z"/>
<path class="st6" d="M157.9,223.7c1.1,1,2.1,2,3.1,3c0.4,0.4,0.8,0.7,1.3,0.9c1.6,0.6,2.1,0.3,2.6-1.6c-2.4,0.5-3.8-1.2-5.2-2.7
	c-0.8-0.9-1.5-1.8-2.3-2.7c0.4-0.5,0.7-0.1,1-0.1c0.6,0.2,1.1,0.3,1.7,0.4c0.7,0.1,1.1-0.3,1-1c-0.1-0.7-0.3-1.3-0.5-2
	c-0.1-0.5-0.6-0.9-0.2-1.5c0.5,0,0.9,0.4,1.3,0.6c1.4,0.9,2.9,0.8,4.3,0.5c0.9-0.2,1.6-0.8,1.9-1.8c0.3-0.9,0.3-1.9,0.6-2.8
	c0.7-0.1,0.9,0.4,1.3,0.8c0.8,0.8,1.5,1.6,2.7,1.9c0.4,0.1,0.5,0.4,0.7,0.7c2.9,4.8,10.1,4.7,12.8-0.3c0.1-0.1,0.2-0.2,0.3-0.4
	c3.7,2.2,6.8,0.9,9.6-1.8c0.3,0.7-0.1,1.2-0.2,1.7c-0.3,1-0.6,2.1-0.5,3.1c0.1,2.1,1.3,2.9,3.3,2.3c0.9-0.3,1.8-0.8,2.5-1.4
	c0.4-0.3,0.8-0.7,1.4-1c0.2,1.5,0.4,2.7-0.9,3.9c-1.2,1.1-2.4,2.1-3.8,2.8c-1.3,0.6-2.6,0.7-3.9-0.4c-0.1,0.8,0.3,1.3,0.6,1.9
	c0.4,0.7,1.1,1,2,0.8c2.1-0.4,3.6-1.7,5.1-3.1c0.6-0.6,1.3-1.3,2.1-2c0.1,0.6-0.3,1-0.5,1.4c-2.7,4.1-4.6,8.6-6.2,13.2
	c-1,2.9-1.6,5.9-2.2,8.8c-0.1,0.7,0,1.3-0.2,2c-0.2,0.5-0.3,0.9-0.9,1c-3.2,0.9-6.4,1.6-9.8,1.7c-5.5,0.1-11-0.6-16.3-2
	c-0.3-0.1-0.6-0.2-1-0.3c-0.5-0.1-0.7-0.4-0.7-0.9c0-4.4-1.1-8.7-2.6-12.8c-1.4-3.8-3.3-7.3-5.5-10.6
	C157.7,223.9,157.8,223.8,157.9,223.7z M192,222.2c-1.1,1.4-2.2,2.7-3.5,3.9c-2,1.9-4.6,1.9-6.6,0.1c-0.8-0.8-1.5-1.6-2.1-2.6
	c-0.5-0.8-0.9-1.5-1.4-2.2c-0.4,0.1-0.5,0.4-0.7,0.6c-0.9,1.4-2,2.6-3,3.9c-1.4,1.6-4.1,2.1-5.8-0.1c-0.5-0.7-0.9-1.4-1.3-2.1
	c-0.2-0.3-0.2-0.8-0.7-0.9c-0.1,0.1-0.3,0.2-0.4,0.3c-0.8,0.4-0.7,1-0.4,1.7c0.6,1.5,1.5,2.8,2.7,3.9c0.6,0.6,1.4,0.8,2.2,0.9
	c1.5,0.1,2.7-0.6,3.7-1.6c1.3-1.2,2.4-2.7,3.5-4.4c0.5,1.2,1.1,2.2,1.8,3.1c2.6,3.2,6,3.4,8.9,1.4c1.3-0.9,2.4-2,3.3-3.2
	C193.2,223.3,193.1,223.6,192,222.2z"/>
<path class="st4" d="M345,236.4c1.6,0.5,3,1.1,4.5,1.5c7.5,2.4,15.1,3.6,23,3.4c6.5-0.2,12.8-1.5,18.8-5c-0.1,1.1-0.1,2.1-0.2,3.1
	c-1,6.9-2.9,13.6-6.1,19.9c-1,2-2.2,4-3.6,5.7c-0.4,0.4-0.7,0.7-1.3,0.9c-8.3,2.4-16.6,2.9-25,0.7c-0.9-0.2-1.5-0.7-1.9-1.5
	c-4.2-8-7-16.5-8.1-25.5C344.9,238.5,344.8,237.5,345,236.4z"/>
<path class="st7" d="M124.1,289.3c-8.6,0-17.2-0.1-25.8,0c-2.6,0-1.7-4.2-1.6-6.9c0.3-4.4,0.3-8.9,1-13.2c0.2-0.4,1-0.4,1.8-0.4
	c0.9,0,1.2,0.6,1.3,1.1c0.4,2.4,1.2,4.7,2.4,6.8c0.8,1.6,2.2,2.6,3.8,3.2c1.9,0.7,4-0.4,5.3-2.1c1.5-1.9,1.9-4.2,2.1-6.5
	c0.1-0.8,0-1.6,0-2.5c0-1.1,0.2-1.6,1.2-1.6c3,0.1,6,0,9,0c5.8,0,11.6,0,17.4,0c2.6,0,4.9,0.7,7.2,1.8c0.7,0.3,1.5,1.2,1.6,1.9
	c0.6,3.7,0.7,7,0.9,10.8c0.1,2.3,0.1,4.5,0.1,6.8c0,0.5-0.2,0.8-0.8,0.8c-0.4,0-0.8,0-1.2,0C141.3,289.3,132.7,289.3,124.1,289.3
	C124.1,289.3,124.1,289.3,124.1,289.3z"/>
<path class="st4" d="M270.1,261.2c3.1,2.3,6.1,2.9,9.4,0.3c-0.2,2.4,0.8,4.3,1.6,6.2c1,2.4,2.5,4.3,4.1,6.2c3.2,3.9,5,8.3,5.5,13.3
	c0.2,1.9,0,3.7-0.5,5.5c-1.2,4.3-4.2,6.8-8.6,7.5c-4.4,0.7-8.8,0.8-13.1,0.3c-1-0.1-1-0.1-1-1.1c0-2.3,0-4.6-0.3-7
	c-0.1-1-0.5-1.6-1.3-2.1c-1.8-1-3.6-1.8-5.5-2.5c-0.7-0.3-1-0.7-1.1-1.5c-0.5-2.9,0.3-5.4,1.4-8c1.2-2.9,3.3-5.3,5.1-7.9
	c0.6-0.8,1.3-1.6,1.8-2.4C268.9,266.1,269.9,264,270.1,261.2z"/>
<path class="st6" d="M211.8,292.8c2.5,1.2,4.9,2.1,7.4,2.8c0.7,0.2,0.9,0.6,0.9,1.3c-0.1,1.2-0.1,2.4-0.1,3.6c0,0.5,0.1,0.7,0.6,0.7
	c2.9,0.2,5.9,0.4,8.8,0.6c1.1,0.1,1.1,0,1.1-1.1c0-1,0.1-1.9,0.3-2.9c0.4-0.2,0.9-0.1,1.3,0c3.9,0.4,7.8,0.3,11.8,0.2
	c1.6,0,1.4,0,1.4,1.4c0,0.5,0,1,0,1.5c0,1.3-0.3,1.3,1.4,1.2c2.2-0.2,4.4-0.2,6.7-0.2c0.7,0,1.4,0,2,0c1,0,1,0,1-1.1
	c0-1.2-0.1-2.3-0.1-3.5c0-0.5,0-0.8,0.6-0.9c2.6-0.6,5.2-1.3,7.7-2.2c0.3,0.2,0.2,0.5,0.2,0.7c0,4.2,0.1,8.4,0.1,12.6
	c0,1.3,0,1.3-1.2,1.7c-5.2,1.5-10.4,2.4-15.8,3c-5.2,0.6-10.5,0.9-15.8,0.8c-5-0.1-10-0.5-15-1.7c-1.4-0.3-2.8-0.8-4.1-1.4
	c-0.5-0.2-0.9-0.5-0.9-1.2c-0.2-5.1-0.5-10.2-0.4-15.4C211.7,293.1,211.7,293,211.8,292.8z"/>
<path class="st6" d="M528.4,386.1c-2.2,1.6-4.5,2.7-6.9,3.7c-5,2-10.2,3.3-15.5,4.1c-5.9,0.9-11.8,1.2-17.8,1
	c-4.9-0.1-9.7-0.6-14.6-1.5c-0.1,0-0.2-0.1-0.3-0.2c0.7-2.1,1.5-4.3,2.1-6.5c0.5-1.6,1.1-3.2,1.3-4.9c0.1-0.6,0.3-0.7,0.8-0.7
	c4.8,0.5,9.6,0.5,14.4,0.2c2.6-0.2,5.4-0.2,7.9-0.7c5.4-1,10.8-2.1,16-4.1c0.9-0.4,1.7-0.3,2.4,0.2c2.6,1.8,5.1,3.7,7.2,6
	C526.4,384,527.5,384.9,528.4,386.1z"/>
<path class="st8" d="M371.4,389c0.2,0.9-0.4,1.5-1.2,1.9c-0.4,0.2-0.8,0.4-1.2,0.5c-3.4,1-5.1,3.4-6,6.6c-0.3,1.1-0.4,2.2-0.6,3.3
	c0,0.2,0,0.5-0.1,0.7c-0.1,0.6-0.5,1.1-1.1,1.2c-0.6,0.1-1.1-0.2-1.4-0.8c-0.5-0.9-0.9-1.7-1.3-2.6c-1-1.8-2.2-3.5-4.4-4
	c-5.6-1.5-9.8,1.3-10.6,6.9c-0.3,1.9-0.2,3.8-1.2,5.5c-0.8,1.3-1.8,2.2-3.5,2.2c-0.7,0-1.3-0.3-1.8-0.8c-0.6-0.7-1.1-1.5-1.4-2.4
	c-0.5-1.3-0.9-2.6-1.4-4c-0.5-1.3-1.2-2.5-2.2-3.6c-1.4-1.6-3.2-2.4-5.2-2.4c-2.5,0-4.9-0.2-7.4-0.4c-2.5-0.1-5.1-0.4-7.6-0.7
	c-1.9-0.2-3.7-0.4-5.6-0.6c-2.7-0.4-5.3-0.8-8-1.2c-3.2-0.5-6.4-1.1-9.5-2c-1.9-0.6-3.7-1.2-5.6-1.8c-1.2-0.4-1.6-1.2-1.8-2.4
	c-0.1-0.6,0.1-1.3,0.3-1.9c0.3-1.1,1.2-1.5,2.3-1.1c5,1.9,10.1,3.1,15.4,4.1c3.7,0.7,7.4,1.2,11.2,1.6c7.3,0.8,14.6,1,22,0.8
	c3.9-0.1,7.7-0.4,11.5-0.8c2.5-0.3,5-0.6,7.5-0.9c2.5-0.3,5-0.8,7.4-1.3c3.4-0.7,6.7-1.5,9.9-2.6c1.5-0.5,1.9-0.3,2.4,1.2
	C371.4,387.9,371.4,388.4,371.4,389z"/>
<path class="st3" d="M285.9,415c3,0.7,5.7,0.2,8.4,0c2.4-0.1,4.6,0.3,6.8,1.2c2.4,1,4.9,1.5,7.4,1.8c1.4,0.2,2.9,0.1,4.2-0.3
	c3.1-0.8,6-0.5,9,0.2c2.1,0.5,4.2,0.7,6.3,0.9c2.2,0.1,4.3-0.4,6.4-1.2c3.2-1.2,6.5-1.6,9.8-0.9c0.5,0.1,1,0.2,1.6,0.3
	c3.7,0.8,7.1-0.1,10.4-1.6c1.7-0.8,3.5-1.3,5.3-1.9c1-0.3,2-0.4,3-0.4c0.9,0,1.2,0.2,1.1,1.1c-0.2,2.4-0.7,4.7-2.1,6.7
	c-1,1.4-2.3,2.2-3.9,2.8c-2.3,0.8-4.7,1-7.1,1.3c-6.8,0.8-13.6,1.2-20.4,1.4c-4.3,0.2-8.6-0.2-12.9-0.4c-2.6-0.1-5.2-0.2-7.8-0.4
	c-6.3-0.3-12.4-1.6-18.5-3.2c-0.8-0.2-1.7-0.5-2.4-0.9C287.7,420.4,286.3,418.1,285.9,415z"/>
<path class="st9" d="M123.5,412.1c-1.6,0-3.1,0.1-4.6,0c-4.1-0.2-8.1-0.7-12.1-1.9c-2.3-0.7-3-2.6-2.8-4.7c0.4-3.2,0.9-6.5,1.3-9.7
	c0.1-1-0.1-1.9,0.2-2.9c0.3-0.9,0.3-0.9,1.1-0.5c3.1,1.4,6.4,2.1,9.7,2.6c3.6,0.6,7.2,0.8,10.8,0.5c4.2-0.3,8.4-0.8,12.5-2.2
	c0.2-0.1,0.4-0.1,0.6-0.2c0.6-0.3,0.9-0.1,1,0.6c0.2,1.5,0.5,2.9,0.8,4.4c0.3,2.1,0.9,4.1,1.4,6.2c0.4,1.9,0.2,3.7-1.4,5.2
	c-0.4,0.3-0.8,0.6-1.2,0.7c-2.2,0.7-4.4,1.1-6.6,1.4C130.5,412.1,127,412.2,123.5,412.1z"/>
<path class="st6" d="M181.1,277c-6.6-0.1-13.1-1-19.3-3.4c-2.7-1.1-5.5-2.1-8-3.7c-1-0.6-1.1-0.7-0.6-1.7c0.6-1.3,1.1-2.7,1-4.2
	c-0.1-0.4,0.1-0.6,0.6-0.6c2.2-0.3,4.1-1.1,5.7-2.6c0.4-0.3,0.7-0.3,1.2-0.1c6.7,3,13.7,3.8,20.9,3.6c5.7-0.1,11.4-0.9,16.7-3.1
	c0.4-0.2,0.7-0.1,1.1,0.1c1.5,1.2,3.2,2,5.1,2.7c1.4,0.5,1.8,1.7,1.1,3c-0.8,1.6-2.2,2.8-3.7,3.9c-4.3,3.1-9.1,4.7-14.3,5.5
	C186.1,276.9,183.6,276.9,181.1,277z"/>
<path class="st6" d="M201.8,423.1c11.9,5,24.2,6.5,36.7,6.3c12.5-0.2,24.7-2.1,36.4-7.2c0,1.9,0.1,3.7,0,5.4c-0.1,1-0.9,1.8-1.8,2.4
	c-1.7,1-3.4,1.9-5.2,2.4c-4.1,1.2-8.2,2.4-12.5,3c-3.1,0.5-6.2,0.8-9.4,1.1c-5.3,0.4-10.5,0.5-15.8,0.3c-7.2-0.3-14.4-1.1-21.2-3.5
	c-1.3-0.5-2.6-1-3.8-1.8c-1.7-1-2.8-2.3-3-4.3C202.1,426,202,424.6,201.8,423.1z"/>
<path class="st6" d="M453.5,411c2.4-0.8,4.4-1.7,6.3-2.9c1.1-0.8,2.2-1.5,3.2-2.5c0.5-0.5,0.9-0.6,1.6-0.4c9.2,2.2,18.6,3,28.1,2.8
	c3.2-0.1,6.5-0.5,9.7-0.8c4.5-0.4,9-1.2,13.4-2.3c5-1.3,9.8-3,14.3-5.4c0.1-0.1,0.3-0.1,0.5-0.2c0.1,2-0.3,4-0.6,5.9
	c0,0.3-0.2,0.5-0.4,0.6c-2.8,1.4-5.4,3.2-8.4,4.2c-5,1.6-10.1,3-15.3,3.8c-4.9,0.8-9.7,1.4-14.7,1.7c-4.4,0.2-8.7,0.2-13.1,0
	c-8.2-0.5-16.3-1.6-24.1-4.3C453.9,411.2,453.9,411.2,453.5,411z"/>
<path class="st9" d="M449.9,401.5c2.1-0.4,4.1-0.9,5.9-2.1c0.2-0.1,0.5-0.4,0.6-0.5c0.3-0.3,0.5-0.3,1-0.7c1.7-1,3-2.4,4.2-3.9
	c4.1-5.1,6.5-11.1,7.7-17.6c0.6-3.4,0.5-6.7,0.5-10.1c0-0.9-0.6-1.4-0.7-2.3c-0.2-2.6-0.7-5.2-2-7.5c-1.5-2.8-3.5-5.1-6.5-6.4
	c-2.4-1.1-4.8-1.3-7.3-0.5c-1.1,0.3-2.2,0.6-3.3,1c-0.4-0.3-0.3-0.7-0.2-1c0.3-0.9,0.3-1.7,0.2-2.6c-0.1-1.5,0.7-2.3,1.9-2.7
	c5.7-2.2,11.7-1,15.9,3.1c3.8,3.7,5.6,8.2,6.8,13.2c0.9,3.8,1.1,7.7,0.9,11.6c-0.1,2.7-0.7,5.3-1.2,8c-1,4.7-2.5,9.1-4.9,13.3
	c-2.1,3.7-4.6,7-8,9.7c-1.3,1.1-2.5,2.2-4,3c-2.3,1.3-4.7,1.9-7.3,2.3c-1,0.1-1.2-0.1-1.3-1.1c-0.2-1.7-0.3-3.4-0.5-5.2
	c0-0.4,0.1-0.6,0.5-0.7C449.3,401.6,449.6,401.6,449.9,401.5z"/>
<path class="st4" d="M391.4,280.5c-3.4,1.6-7.1,2.6-10.9,3.3c-5.8,1.1-11.6,1.4-17.5,1.2c-4.5-0.2-9-0.8-13.4-2.3
	c-1.6-0.6-3.1-1.2-4.5-2.5c1.5-0.7,2.9-1.5,4.1-2.5c2.4-2,3.6-4.6,4.5-7.5c0.3-1,0.3-1,1.2-0.8c8.6,2.2,17.1,1.6,25.6-0.8
	c0.2,0,0.4-0.1,0.5-0.2c0.9-0.2,0.9-0.2,1.2,0.7c0.9,3,2.4,5.6,4.5,7.8c1.2,1.2,2.6,2.1,4.1,3C391.1,280,391.4,280.1,391.4,280.5z"
	/>
<path class="st6" d="M143.5,386.7c2.6,0.6,5,1.7,7.5,2.4c3.7,1,7.4,1.8,11.2,2.3c5,0.7,10.1,1.1,15.2,1.4c5,0.2,10,0.2,14.9,0
	c6.1-0.2,12.2-1.2,18.2-3.2c-0.2,0.5-0.3,0.9-0.4,1.3c-0.7,2-1.5,4-2.1,6c-0.3,0.9-0.8,1.3-1.5,1.6c-2,0.8-4.2,1.2-6.3,1.5
	c-7.2,0.9-14.5,0.8-21.7,0.4c-6.3-0.4-12.5-1.1-18.7-2.1c-4.9-0.8-9.8-1.9-14.6-3.4c-0.9-0.3-1.2-0.7-1.3-1.6
	C143.4,391,143.3,388.9,143.5,386.7z"/>
<path class="st6" d="M529.6,388.5c0.7,2.5,1,4.8,1.1,7.2c0,0.6-0.5,0.8-0.9,1c-3.1,1.8-6.5,3.2-9.9,4.3c-5.4,1.7-11,2.9-16.7,3.6
	c-6,0.7-12,1-18.1,0.8c-6.3-0.2-12.5-1-18.6-2.4c-0.1-0.4,0.2-0.6,0.4-0.8c1.7-1.8,3.5-3.6,4.7-5.9c0.3-0.5,0.7-0.6,1.2-0.5
	c2.9,0.6,5.9,0.9,8.9,1.2c4.2,0.4,8.5,0.6,12.8,0.4c5.8-0.2,11.6-0.8,17.2-2C518,394.2,524,392.2,529.6,388.5z"/>
<path class="st5" d="M151.6,264.7c0,0.1,0,0.3,0,0.4c-0.1,1.5-0.4,1.7-1.7,1.1c-2.7-1.2-5.5-1.9-8.5-1.9c-1.7,0-3.4-0.1-5.1,0
	c-7,0.5-14,0.2-21,0.3c-2.4,0-3.5,1.4-3.7,4.2c-0.1,1.4,0.1,2.8-0.3,4.2c-0.3,0.9-0.6,1.8-1.1,2.7c-0.9,1.7-2.8,2.1-4.1,0.7
	c-1.1-1.2-1.5-2.8-1.8-4.4c-0.2-1.2-0.6-2.3-1-3.5c-0.5-1.4-1.6-2.1-3.1-2.1c-0.8,0-1.6,0-2.3,0c-0.5,0-0.8-0.2-0.8-0.8
	c-0.1-0.9,0.2-1.6,0.8-2.2c0.9-1,2.1-1.6,3.3-2.1c14.7-4.8,32.6-5.7,46.2-2.4C150.1,259.6,151.6,261.4,151.6,264.7z"/>
<path class="st0" d="M274.3,410.2c-2.2,1.6-4.6,2.7-7.1,3.7c-5.4,2.1-11,3.3-16.7,4.1c-5.8,0.8-11.6,1-17.4,0.8
	c-8.6-0.4-17.1-1.7-25.2-4.9c-2-0.8-3.9-1.6-5.7-2.8c0.7-1.2,1.7-1.9,2.6-2.8c0.5-0.5,0.9-1.5,1.6-1.6c0.6-0.1,1.3,0.6,1.9,0.9
	c3.6,1.7,7.4,2.7,11.3,3.5c7.3,1.4,14.6,1.7,21.9,1.4c7.7-0.3,15.4-1.4,22.7-4c1.8-0.6,3.6-1.4,5.3-2.4c0.4-0.3,0.8-0.3,1.1,0.1
	C272.1,407.3,273.2,408.6,274.3,410.2z"/>
<path class="st0" d="M274.9,413.3c0.2,1.9,0.1,3.7,0.1,5.6c0,0.6-0.5,0.7-0.9,0.8c-3.3,1.6-6.8,2.8-10.3,3.8
	c-5.7,1.5-11.5,2.5-17.4,3c-5.6,0.5-11.2,0.6-16.8,0.2c-9.1-0.6-17.9-2.1-26.3-5.8c-0.4-0.1-0.7-0.4-1.1-0.5c-0.5-0.2-0.6-0.5-0.6-1
	c0-1.8,0-3.6,0-5.4c0.2-0.1,0.4,0.1,0.7,0.2c5.2,2.7,10.7,4.4,16.4,5.5c7.4,1.5,14.9,2,22.5,1.7c9.1-0.3,18-1.7,26.5-4.9
	c2-0.8,3.9-1.6,5.8-2.7C273.9,413.6,274.2,413.3,274.9,413.3z"/>
<path class="st6" d="M144.4,397.3c6.1,1.9,12.1,3.1,18.2,4c4.9,0.7,9.8,1.2,14.7,1.6c5.3,0.4,10.5,0.5,15.8,0.2
	c4.2-0.2,8.4-0.4,12.4-1.7c0.2-0.1,0.5,0,0.8,0c-0.6,1.8-1.6,3.2-2.8,4.5c-0.9,1-2,1.8-2.9,2.8c-0.6,0.7-1.4,0.9-2.3,1
	c-6.1,0.7-12.3,0.9-18.4,0.6c-5.8-0.4-11.5-1-17.2-2c-4.9-0.9-9.9-1.5-14.7-3.1c-0.3-0.1-0.6-0.2-1-0.3c-0.6-0.2-0.9-0.5-1.1-1.2
	C145.5,401.6,144.8,399.6,144.4,397.3z"/>
<path class="st10" d="M283.5,404.1c5.7,2.5,11.6,3.9,17.5,4.8c5.6,0.8,11.2,1.6,16.9,1.7c4.5,0.1,9.1,0.2,13.6,0.3
	c0.5,0,1.1,0.1,1.6,0c0.9,0,1.5,0.3,2.1,0.9c1.4,1.5,3.8,1.9,5.8,1.1c1.2-0.5,2.2-1.3,3-2.4c0.4-0.5,0.7-0.6,1.3-0.7
	c2.8-0.4,5.6-0.4,8.3-1.1c0.3-0.1,0.7-0.1,1-0.2c4.4-1.2,8.8-2.3,13-4.1c1.1-0.5,1.1-0.4,1.5,0.7c0.6,1.9,0.4,3.6-1,5.1
	c-0.4,0.4-0.8,0.6-1.4,0.5c-4-0.4-7.8,0.6-11.4,2.2c-1.5,0.7-3.1,1.2-4.7,1.6c-1.7,0.4-3.5,0.1-5.2-0.2c-1.4-0.2-2.9-0.5-4.3-0.5
	c-2.4,0-4.8,0.3-7.1,1.2c-3.4,1.4-6.8,1.4-10.2,0.7c-2.2-0.4-4.3-1-6.6-1.1c-1.4,0-2.8,0-4.2,0.3c-3.8,0.9-7.5,0.3-11-1.2
	c-3.5-1.5-7-1.7-10.7-1.2c-1.2,0.1-2.3,0.2-3.5,0.2c-3-0.1-4.7-1.6-5.1-4.6C282.7,406.8,282.9,405.5,283.5,404.1z"/>
<path class="st11" d="M333,408.1c-1.5,0-2.9,0-4.4,0c-3.9-0.1-7.7-0.2-11.6-0.3c-4.4-0.1-8.8-0.8-13.1-1.3
	c-4.7-0.5-9.2-1.6-13.8-2.8c-2-0.5-3.9-1.1-5.7-2c-0.8-0.4-1.2-0.9-1.4-1.7c-0.4-1.4-0.7-2.7-0.2-4.1c0.5-1.5,1.6-2.2,3-1.6
	c3.8,1.3,7.7,2.1,11.7,2.8c9.2,1.5,18.5,2.7,27.9,3c1,0,1.9,0.2,2.9,0.3c0.8,0.1,1.4,0.5,1.9,1.2c0.5,0.6,1,1.2,1.2,2
	C332.1,404.9,332.6,406.4,333,408.1z"/>
<path class="st12" d="M327.2,389.2c-11-0.1-22.3-1-33.4-3.7c-3.1-0.8-6.2-1.7-9.3-2.8c-0.4-0.1-0.8-0.3-1.2-0.5
	c-1.2-0.7-1.2-2.5-0.1-3.3c0.6-0.4,1.2-0.2,1.8,0c3.4,1.4,6.9,2.4,10.5,3.3c8.1,2,16.4,3,24.7,3.4c6.5,0.3,13.1,0.2,19.6-0.3
	c9.6-0.8,19-2.4,28-5.8c1.2-0.5,1.5-0.3,1.8,1c0.1,0.4,0.1,0.9,0.1,1.3c-0.1,1-0.5,1.7-1.6,2.1c-5.4,1.6-10.9,2.8-16.5,3.7
	C343.5,388.6,335.6,389.1,327.2,389.2z"/>
<path class="st9" d="M414.6,422.9c-3,0.2-5.8-0.2-8.7-0.3c-4-0.2-8-0.8-11.9-2c-0.9-0.3-1.8-0.7-2.7-1.1c-0.5-0.2-0.7-0.6-0.7-1.1
	c-0.1-1.4,0.1-2.8,0.3-4.2c0.1-0.6,0.4-0.5,0.9-0.4c1.6,0.6,3.2,1.1,4.9,1.4c2.2,0.4,4.3,0.8,6.5,1.1c2.6,0.3,5.2,0.4,7.8,0.6
	c4.1,0.4,8.1,0.3,12.2,0.2c5.9-0.3,11.7-0.7,17.4-2.3c1.9-0.5,3.8-1,5.4-2.3c0.6-0.5,0.9-0.3,1,0.5c0,0.9,0,1.8,0,2.8
	c-0.1,1.5-0.9,2.5-2.3,3.1c-3.1,1.1-6.3,1.9-9.5,2.4c-2.6,0.4-5.2,0.8-7.9,1c-1.6,0.2-3.2,0.4-4.8,0.4
	C419.8,422.5,417.2,423.1,414.6,422.9z"/>
<path class="st6" d="M345.9,233.7c0.8-0.7,1.7-1.2,2.6-1.6c4-2.1,8.2-3.2,12.6-4c0.7-0.1,1.2,0.1,1.7,0.7c3.2,3.7,8.9,3.4,11.4-0.4
	c0.5-0.8,1.1-0.7,1.8-0.6c1.7,0.3,3.4,0.7,5,1.4c3.2,1.2,6.2,2.7,9,4.8c-0.3,0.5-0.8,0.7-1.3,0.9c-3.3,1.8-7,2.8-10.7,3.3
	c-10.8,1.5-21.2-0.2-31.4-4C346.4,234.1,346.1,234,345.9,233.7z"/>
<path class="st6" d="M216.9,313.9c14.7,2.6,29,1.7,43.5-1.2c-0.5,2.2-1.3,4.2-2.2,6.2c-0.2,0.5-0.7,0.6-1.2,0.8
	c-2.4,0.9-4.8,1.4-7.3,1.8c-6.2,1.1-12.5,1.4-18.8,1.2c-2.9-0.1-5.7-0.4-8.5-1.1c-0.4-0.1-0.7-0.2-1.1-0.3c-1.1-0.3-1.9-1-2.4-2.1
	C218.3,317.5,217.5,315.8,216.9,313.9z"/>
<path class="st6" d="M274.3,321.2c-4.2,0-8.3-0.4-12.3-1.7c-1.8-0.6-1.8-0.6-1-2.3c0.5-1.2,1.2-2.4,1.6-3.7c0.2-0.6,0.6-1.2,1.4-1.4
	c0.3-0.1,0.5-0.2,0.8-0.4c1.5-0.8,2.9-1,4.7-0.8c5.5,0.7,11,0.6,16.3-1.3c0.4-0.1,0.7-0.3,1.1-0.1c1.5,0.8,3.2,1.1,4.7,1.7
	c1.5,0.6,2,1.4,2,2.8c0,1-0.5,1.8-1.4,2.4c-2.8,1.9-5.9,3.1-9.3,3.8C280.1,320.9,277.2,321.1,274.3,321.2z"/>
<path class="st0" d="M342.5,281.4c3.3,3.2,7.4,4.4,11.7,5.2c11.5,2,22.8,1.4,34-2c2-0.6,3.9-1.4,5.7-2.4c0.6-0.3,0.8-0.2,1.1,0.4
	c0.7,1.8,0.6,3.4-0.7,4.9c-1.8,2.1-4.1,3.1-6.8,3.5c-7,1.1-14.1,1.2-21.1,1.2c-5,0-10.1-0.2-15-1c-2.8-0.4-5.5-1.2-7.8-2.9
	C341.5,287,340.5,283.7,342.5,281.4z"/>
<path class="st6" d="M389,408.2c0.1,1-0.2,1.9-0.4,2.8c-0.5,2-0.7,4.1-0.9,6.2c-0.1,1.6,0.1,3.2,0.7,4.8c-7.6,2.2-15.1,2.9-22.8,0.9
	c0.7-1.2,1.4-2.4,1.8-3.7c0.5-1.5,0.9-3.1,0.7-4.7c0-0.6,0-0.9,0.6-1.3c1.1-0.8,2.2-1.8,2.7-3.1c0.1-0.3,0.3-0.6,0.7-0.5
	c5.6,0.7,11.1,0,16.5-1.3C388.8,408.1,388.9,408.2,389,408.2z"/>
<path class="st6" d="M197.8,259c-2.6,1.1-5.1,1.6-7.6,2.1c-4.3,0.7-8.6,0.8-12.9,0.5c-4.6-0.3-9.1-1-13.4-2.8
	c-0.3-0.1-0.6-0.3-0.9-0.4c-0.4-0.2-0.5-0.4-0.3-0.8c0.9-2.1,1.7-4.3,2.2-6.6c0.1-0.6,0.5-0.5,0.9-0.4c1.3,0.4,2.7,0.8,4,1.1
	c4.8,1,9.7,1.6,14.7,1.4c2.9-0.1,5.8-0.7,8.7-1.5c1.3-0.4,1.3-0.3,1.6,0.9C195.5,254.9,196.4,257,197.8,259z"/>
<path class="st0" d="M213.5,290.6c1.6-1,3.2-1.2,4.9-1.5c1.7-0.3,3.3-0.6,5-0.7c1-0.1,1-0.1,1,1c0,0.6,0.1,1.2,0,1.7
	c-0.1,0.8,0.4,1,1,1.1c0.4,0,0.8,0,1.2,0c1.7-0.1,3.4-0.2,5.1-0.2c0.7,0,1.1-0.2,1-1c-0.1-0.7,0-1.5,0-2.2c0-0.6,0.2-1,0.9-1
	c3.3-0.2,6.3-0.2,9.4-0.2c0.5,0,0.8,0.2,0.8,0.8c0,0.8,0.1,1.6,0.1,2.5c0,0.6,0.2,1,0.9,1c2.2,0,4.4-0.1,6.7-0.1
	c0.5,0,0.7-0.2,0.7-0.7c0-0.8-0.1-1.5,0.1-2.4c3.5,0.5,7,1.4,10.5,3c-2.2,0.9-4.4,1.4-6.5,1.9c-0.9,0.2-1.9,0.5-2.8,0.8
	c-0.1,0.6,0.1,1.7,0.2,2.5c0.1,2.1,0.1,2.1-2.1,2.1c-0.9,0-1.7,0-2.6,0c-0.6,0-0.9-0.2-0.9-0.8c0-0.7,0-1.4,0-2
	c0-1.1-0.1-1.1-1.2-1.2c-0.5,0-1,0-1.4,0c-4.4,0.4-8.7,0.3-13.1,0c-1.1-0.1-2.2-0.3-3.3-0.3c-0.5,0-0.8,0.1-0.8,0.7
	c0,1-0.1,1.9-0.2,2.9c0,0.5-0.2,0.8-0.8,0.7c-1.4-0.1-2.8-0.3-4.2-0.4c-0.6,0-0.7-0.3-0.7-0.9c0-1.2,0-2.3,0.1-3.5
	c0-0.5-0.2-0.7-0.7-0.9c-1.7-0.5-3.3-1-4.9-1.6C215.7,291.6,214.6,291.2,213.5,290.6z"/>
<path class="st6" d="M372.7,392.8c5.7,0.9,11.4,0,17-1.7c0.3,0.6,0.2,1.2,0.2,1.7c-0.2,3.3-0.1,6.7-0.2,10c0,2.3-0.1,2.4-2.3,2.9
	c-3.6,0.9-7.3,1.2-11.1,1.4c-1.1,0-2.2-0.1-3.3-0.2c-0.6-0.1-0.8-0.4-1-1c-0.5-1.5-0.5-2.8,0.6-4.2c1.7-2.1,1.6-5.7,0.3-8.1
	C372.8,393.5,372.5,393.3,372.7,392.8z"/>
<path class="st0" d="M366,219.6c-1.2,0.3-2.2,0.7-3.2,1.1c-1.4,0.6-1.6,0.5-1.7-0.9c-0.2-2.2-0.3-4.3-0.4-6.5
	c-0.1-1.4,0.2-1.5,1.4-0.9c1,0.5,2.1,1,3.3,1.1c-0.3-2.1-1.5-3.7-2.7-5.4c0.6-0.4,1.2-0.4,1.8-0.4c3.1,0.1,6.3,0.3,9.4,0.2
	c0.8,0,1,0.3,0.6,1.1c-0.7,1.3-1.4,2.6-1.9,4.1c0,0.2-0.2,0.3,0,0.6c0.9,0,1.6-0.4,2.3-0.8c1.2-0.6,1.5-0.4,1.6,0.9
	c0.1,2.2,0.1,4.4,0,6.7c-0.1,1.1-0.3,1.2-1.4,0.7c-1.1-0.6-2.3-0.9-3.6-1.2c-0.2,1.6,0.1,3.1,0.4,4.5c0.4,2.1-0.4,3.5-2.4,4
	c-1.6,0.4-3.2,0.1-4.5-1c-0.5-0.4-0.7-0.8-0.4-1.5c0.8-1.6,1-3.4,1.2-5.2C366.2,220.5,366.2,220.1,366,219.6z"/>
<path class="st0" d="M287.8,423.5c-3-1.1-5.9-2.2-8.9-3.4c-0.5-0.2-0.7-0.4-0.7-0.9c-0.1-1.9-0.2-3.8-0.2-5.6c0-2.4-0.8-4.5-2.4-6.3
	c-0.8-0.9-1.6-2-2.6-2.7c-1.1-0.8-1.7-1.8-1.9-3.1c-0.1-0.3-0.1-0.6-0.3-1.1c1.4,0.3,2.7,0.5,4,0.5c1.6,0,3.2,0,4.8-0.4
	c0.6-0.2,0.9,0,1.1,0.6c0.4,1,0.5,1.9,0.2,3c-0.8,2.7-0.5,5.4,0.4,8c0.4,1.3,0.9,2.5,1.6,3.7c0.3,0.4,0.5,0.9,0.6,1.4
	c0.5,2.5,1.9,4.4,4,5.7c0.3,0.2,0.6,0.3,0.9,0.4C288.2,423.5,288,423.4,287.8,423.5z"/>
<path class="st6" d="M465.9,379.7c-0.2,0.6-0.4,1.3-0.6,1.9c-0.9,2.8-2.1,5.4-3.6,7.9c-0.3,0.5-0.6,0.8-1.3,0.5
	c-3.3-1.2-6.5-2.7-9.5-4.6c-0.9-0.6-0.9-0.7-0.2-1.4c1.1-1,2.2-1.9,3.4-2.8c1.8-1.4,3.5-2.7,5-4.4c0.4-0.4,0.6-0.4,1.1-0.1
	c1.6,0.9,3.2,1.5,4.9,2.1C465.6,378.9,466,379,465.9,379.7z"/>
<path class="st0" d="M458.7,352.8c2.2,0.3,3.6,1.4,4.8,3c1.6,2,2.3,4.4,2.8,6.9c0.8,4.3,0.6,8.6,0,12.9c-0.1,0.7-0.4,0.8-1,0.6
	c-1.3-0.5-2.6-0.9-4-1.4c-0.7-0.2-0.7-0.6-0.5-1.2c1.9-6,1.2-11.8-1-17.6C459.5,355,459,354,458.7,352.8z"/>
<path class="st0" d="M284.1,302.4c-0.1,1.5,0.3,2.6,1,3.7c0.5,0.7,0.5,0.9-0.4,1.2c-1.4,0.6-3,0.9-4.5,1c-3.9,0.5-7.8,0.5-11.7-0.1
	c-0.8-0.1-1-0.5-1-1.2c0-1,0-2,0-3c0-0.6,0.2-0.7,0.8-0.7c1.4,0.1,2.7,0.2,4,0.3C276.2,303.7,280.1,303.3,284.1,302.4z"/>
<path class="st0" d="M269.7,382.2c3.4-0.2,5.9-0.3,9.2-0.6c0.7-0.2,0.8,0.1,1,0.6c0.3,0.9,0.4,1.6-0.2,2.4c-0.5,0.8-0.7,1.8-0.7,2.8
	c0,0.5-0.1,0.9-0.8,1c-3.4,0.8-6.8,1.1-10.2,0.5c-0.6-0.1-1-0.3-1.1-0.9c-0.4-1.6-0.8-3.2-1.2-4.8c-0.2-0.8,0-1,0.9-1
	C267.6,382.2,268.6,382.2,269.7,382.2z"/>
<path class="st11" d="M357.8,404.7c-3.1,1.4-8.8,2.1-12,2.1c0.1-1.3,0.2-2.7,0.4-4c0.1-0.6,0.3-1.1,0.5-1.7c0.8-1.8,2.2-2.8,4.3-2.9
	c2.1-0.1,3.7,0.6,4.7,2.4C356.4,401.9,357.1,403.3,357.8,404.7z"/>
<path class="st0" d="M267.9,391.5c0.7,0,1.3,0.1,1.8,0.1c3,0.4,5.9,0.2,8.8-0.5c0.7-0.2,1.2-0.1,1.5,0.6c0.1,0.3,0.3,0.5,0.5,0.7
	c0.7,0.6,0.8,1.2,0.2,2c-0.5,0.7-0.5,1.5-0.5,2.4c0,0.6-0.3,0.8-0.8,1c-3,0.8-6,0.8-9,0c-0.4-0.1-0.6-0.2-0.8-0.6
	C269,395.2,268.5,393.4,267.9,391.5z"/>
<path class="st0" d="M174.7,212.3c0-2.7,2.1-4.9,4.8-4.8c2.4,0.1,4.8,1.6,4.8,4.9c0,2.5-1.9,4.6-4.8,4.7
	C176.9,217.2,174.7,215,174.7,212.3z"/>
<path class="st0" d="M459.4,392.5c-1.6,1.3-3.2,2.2-4.9,3.1c-1,0.5-2.1,1-3.2,1.4c-0.6,0.3-1.3,0.2-1.9-0.2
	c-0.5-0.3-0.7-0.6-0.6-1.2c0.2-2.2,0.1-4.3,0.1-6.5c0-0.5,0-1.1,0.4-1.6C452.5,389.5,455.8,391,459.4,392.5z"/>
<path class="st0" d="M275.1,260.3c-2.2,0-4-1.7-4.1-3.9c0-2.2,1.9-4.2,4.2-4.2c2.2,0,4,1.8,4,3.9
	C279.2,258.2,277.1,260.3,275.1,260.3z"/>
<path class="st11" d="M365.2,402.6c0.1-2,0.1-3.8,1-5.5c0.6-1.2,1.5-2.3,2.8-2.9c0.9-0.4,1.2-0.3,1.7,0.5c1,1.6,0.7,3.3,0.2,5
	c-0.1,0.3-0.4,0.6-0.7,0.7C368.6,401.3,367,402,365.2,402.6z"/>
<path class="st13" d="M457.4,414.7c-0.2,0.1-0.5,0-0.6,0.3c-2.5-0.7-4.9-1.7-7.3-2.5c-0.6-0.2-0.6-0.6-0.4-1.2
	C451.6,413,454.5,413.9,457.4,414.7z"/>
<path class="st0" d="M287.8,423.5c0.2-0.1,0.5,0,0.6-0.3c1.3,0.6,2.7,1.2,4,1.9C290.7,424.7,289.3,424.1,287.8,423.5z"/>
<path class="st6" d="M157.9,223.7c-0.1,0.1-0.2,0.2-0.3,0.4c-1-0.7-1.5-1.8-2.4-2.8C156.1,221.5,156.5,221.8,157.9,223.7z"/>
<path class="st13" d="M448.9,401.7"/>
<path class="st13" d="M449.9,401.5"/>
<g>
	<path d="M229.2,624.5c0-2.4,0-4.7,0-7.1c0-0.5,0.1-0.8,0.7-0.8c2.7,0.1,5.3,0.2,8,0.2c0.6,0,0.6,0.3,0.6,0.8
		c0.1,3.5,0.1,7,0.2,10.4c0.1,5.1,0.3,10.2,0.3,15.2c0,0.6,0.1,1.3,0.1,1.9c0.1,0.5-0.1,0.7-0.7,0.7c-1.5,0-2.9,0.1-4.4,0.2
		s-2.9,0.1-4.4,0.2c-0.6,0-0.7-0.1-0.7-0.7c0-2.6-0.1-5.3-0.1-7.9c0-0.5-0.1-0.8-0.7-0.8c-1.1,0-2.2,0-3.3,0c-0.4,0-0.6,0.1-0.7,0.6
		c0,0.4-0.1,0.9-0.1,1.3c-0.1,2.1-0.1,4.3-0.2,6.4c0,0.5-0.2,0.7-0.7,0.6c-2.6,0-5.2,0-7.8,0c-0.5,0-0.6-0.2-0.6-0.7
		c0.2-4.7,0.3-9.3,0.5-14c0.1-3,0.1-6,0.2-9c0-1.4,0.1-2.8,0.1-4.2c0-0.5,0.1-0.7,0.6-0.7c2.9,0.1,5.7,0.2,8.6,0.3
		c0.5,0,0.5,0.3,0.5,0.6c-0.2,4.4-0.4,8.9-0.6,13.3c0,0.6,0.1,0.8,0.7,0.8c1.1,0,2.1,0,3.2,0c0.6,0,0.7-0.2,0.7-0.8
		C229.2,629.2,229.2,626.8,229.2,624.5C229.2,624.5,229.2,624.5,229.2,624.5z"/>
	<path d="M261.6,635.2c1.8,1,3.7,1.6,5.6,1.9c1.3,0.2,2.5,0.2,3.8,0.1c0.3,0,0.5-0.1,0.8-0.2c0.6-0.2,1-0.6,1-1.3c0-0.6-0.5-1-1-1.2
		c-0.9-0.3-1.8-0.4-2.8-0.4c-1.3,0-2.5-0.2-3.7-0.7c-2.9-1.2-4.2-3.6-4.5-6.6c-0.5-6,3.8-10.1,9.1-11c3.2-0.5,6.5-0.2,9.6,0.9
		c0.7,0.2,1,0.5,0.9,1.4c-0.3,2.2-0.5,4.3-0.6,6.5c0,0.6-0.2,0.7-0.8,0.5c-2.4-0.7-4.8-1.2-7.2-0.8c-0.4,0.1-0.9,0.2-1.2,0.4
		c-0.5,0.2-0.8,0.6-0.8,1.2c0,0.5,0.4,0.8,0.9,1c1.1,0.4,2.2,0.4,3.4,0.4c1.4,0,2.8,0.2,4.1,0.8c2.5,1.1,3.7,3.1,4,5.7
		c0.7,6.4-3.5,11.4-9.9,12.1c-4,0.5-7.4-0.8-10.9-2.3c-0.3-0.1-0.5-0.3-0.4-0.7C261,640.5,261.3,637.9,261.6,635.2z"/>
	<path d="M251,616.5c2.8,0,5.6,0,8.4,0c0.7,0,1,0.1,1,1c-0.2,2-0.3,4-0.4,6c0,0.5-0.1,0.7-0.6,0.7c-1.4,0-2.7,0.2-4.1,0.2
		c-1.1,0.1-2.3,0.1-3.4,0.2c-0.4,0-0.6,0.2-0.6,0.5c-0.3,2.1-0.3,2.1,1.7,2.1c1.2,0,2.4,0,3.6,0c0.4,0,0.6,0,0.6,0.5
		c-0.1,1.7-0.3,3.4-0.4,5.1c0,0.5-0.2,0.8-0.8,0.8c-1.6,0-3.2-0.1-4.7,0.1c-0.1,0-0.2,0-0.3,0c-1,0.7-0.4,1.7-0.6,2.5
		c-0.1,0.6,0.4,0.5,0.7,0.5c2.3,0,4.6,0,6.9,0c0.8,0,0.9,0.2,0.9,0.9c-0.2,2.5-0.3,4.9-0.4,7.3c0,0.4-0.1,0.6-0.5,0.6
		c-5.5,0.1-11,0.2-16.5,0.4c-0.6,0-0.5-0.4-0.5-0.8c0.1-3.3,0.2-6.7,0.3-10c0.1-4.4,0.2-8.8,0.2-13.2c0-1.5,0.1-3.1,0.1-4.7
		c0-0.7,0.2-0.8,0.8-0.8C245.3,616.5,248.2,616.5,251,616.5z"/>
	<path d="M213.2,634.3c-0.2,2-0.3,3.8-0.4,5.6c-0.1,1.1-0.2,2.2-0.3,3.3c0,0.3-0.1,0.6-0.4,0.8c-4.5,1.9-9.1,2.4-13.5-0.2
		c-3.6-2.2-5.6-5.5-5.8-9.8c-0.2-3.7,0.4-7.3,2.4-10.6c3-5.1,7.6-7.3,13.4-7.2c1.5,0,3,0.2,4.5,0.8c0.5,0.2,0.6,0.4,0.6,1
		c-0.4,2.3-0.6,4.7-0.9,7c-0.1,0.6-0.2,0.8-0.9,0.7c-2.8-0.3-5.4-0.1-7.5,2.1c-1.5,1.5-1.9,3.4-1.6,5.4c0.3,1.6,1.5,2.7,3.2,2.9
		c2.1,0.3,4-0.2,5.9-1C212.2,634.8,212.6,634.6,213.2,634.3z"/>
	<path d="M165.9,619.2c-4.8,0-9.5,0-14.2,0c-1.8,0-2.6-0.8-2.6-2.5c0-2.3,0-4.7,0-7c0-1.8,1.4-3.4,3.2-3.4c1.4,0,3.5,1.2,3.4,3.3
		c0,0.7,0.2,0.8,0.8,0.6c1.8-0.5,3.6-0.8,5.5-0.9c0.5,0,0.8-0.2,1-0.7c0.5-1.4,1.8-2.2,3-2.2c1.3,0,2.5,0.9,3,2.3
		c0.1,0.4,0.3,0.6,0.7,0.6c2,0.2,4,0.5,5.9,1c0.7,0.2,0.5-0.3,0.5-0.7c0.1-1.9,1.6-3.1,3.2-3.2c1.6-0.1,3.4,1.3,3.5,3.2
		c0.1,2.5,0,5,0,7.5c0,1.3-1,2.3-2.4,2.3C175.7,619.2,170.8,619.2,165.9,619.2z"/>
	<path d="M166,651.2c6,0,12,0,18,0c1.3,0,1.4,0.2,1.2,1.4c-0.3,2.2-2.1,3.8-4.3,3.8c-10,0-19.9,0-29.9,0c-2.2,0-4-1.5-4.4-3.7
		c-0.3-1.3,0-1.6,1.3-1.6c5.7,0,11.4,0,17.1,0C165.3,651.2,165.6,651.2,166,651.2z"/>
	<path d="M165.9,643.6c4.6,0,9.3,0,13.9,0c1.8,0,3.1,1.4,3.1,2.8c0,1.6-1.3,2.8-3.1,2.8c-9.3,0-18.5,0-27.8,0c-1.6,0-2.8-0.9-3-2.2
		c-0.3-1.5,0.4-2.7,1.7-3.3c0.4-0.2,0.9-0.2,1.4-0.2C156.7,643.6,161.3,643.6,165.9,643.6z"/>
	<path d="M165.9,625.2c4,0,8,0,12,0c1.8,0,3.1,1.2,3.1,2.8c0,1.6-1.3,2.8-3.1,2.8c-8,0-16,0-24,0c-1.6,0-2.8-1-3-2.3
		c-0.2-1.4,0.6-2.7,1.9-3.2c0.4-0.1,0.8-0.1,1.2-0.1C158,625.2,161.9,625.2,165.9,625.2z"/>
	<path d="M166,641.6c-4.3,0-8.6,0-12.8,0c-1.2,0-2.1-0.8-2.2-1.8c-0.2-1.4,0.4-2.3,1.6-2.7c0.7-0.2,1.2-0.2,1.5,0.6
		c0.4,1,1.4,1.5,2.5,1.5c1.1,0,2-0.5,2.5-1.5c0.4-0.8,0.9-0.9,1.6-0.7c1,0.3,2.1,0.3,3.1,0c0.2-0.1,0.4-0.1,0.6-0.1
		c4.8,0,9.6,0,14.4,0c1,0,1.9,0.6,2.1,1.5c0.3,1,0.1,2-0.7,2.6c-0.5,0.4-1.1,0.5-1.6,0.5C174.3,641.6,170.1,641.6,166,641.6z"/>
	<path d="M165.9,632.8c4.4,0,8.7,0,13.1,0c0.3,0,0.5,0,0.8,0c0.6,0.1,1.1,0.4,1.1,1.1c0,0.7-0.4,1.1-1,1.2c-0.3,0-0.5,0-0.8,0
		c-3.8,0-7.6,0-11.3,0c-1.4,0-2.8,0.1-4,0.7c-1.1,0.5-2.1,0.4-3.2,0c-1.4-0.5-2-0.2-2.6,1.2c-0.3,0.7-0.7,1-1.5,1
		c-0.8,0-1.2-0.4-1.5-1.1c-0.5-1.5-0.7-1.7-2.3-1.7c-0.2,0-0.4,0-0.6,0c-0.7,0-1.2-0.4-1.2-1.1c0-0.7,0.4-1.1,1.2-1.1
		c2.5,0,5,0,7.6,0C161.8,632.8,163.9,632.8,165.9,632.8z"/>
	<path d="M165.9,621.3c4.5,0,8.9,0,13.4,0c0.3,0,0.5,0,0.8,0c0.5,0,0.8,0.4,0.9,0.8c0,0.5-0.2,0.9-0.7,1c-0.3,0.1-0.6,0.1-0.9,0.1
		c-8.9,0-17.8,0-26.8,0c-0.3,0-0.6,0-1-0.1c-0.5-0.1-0.7-0.5-0.7-1c0-0.5,0.3-0.8,0.8-0.8c0.3,0,0.5,0,0.8,0
		C157,621.3,161.4,621.3,165.9,621.3z"/>
	<path d="M323.4,631.2c1.3-0.4,2.2-1,3-1.8c2.1-2.4,2-6.9-0.2-9.5c-1.4-1.6-3.3-2.6-5.3-3.1c-5.1-1.3-10.1-0.5-15,1.1
		c-0.5,0.2-0.5,0.5-0.5,0.9c0,8.3,0,16.6,0,24.8c0,0.6,0.2,0.8,0.7,1c4.1,1.7,8.5,1.7,12.9,1.5c1.9-0.1,3.6-0.5,5.4-1.2
		c5.1-2,6.3-7.7,2.6-11.6C326,632.3,324.8,631.8,323.4,631.2z M318.8,636.4c-0.2,1.6-2.6,2.9-4,2c-0.5-0.3-0.1-1-0.2-1.4
		c0-0.9,0.1-1.8,0.1-2.7c0-0.3,0.1-0.5,0.4-0.6C316.9,633,318.9,634.5,318.8,636.4z M317.3,629.3c-0.8,0.4-1.7,0.8-2.3,0.4
		c-0.6-0.4,0-1.5-0.2-2c0-0.7,0.1-1.1,0-1.6c-0.1-1,0.4-1.2,1.2-1.3c1.2-0.2,2.4,0.5,2.7,1.5C319,627.6,318.5,628.7,317.3,629.3z"/>
	<path d="M406.1,635.1c-0.1,0-0.1,0-0.2,0c0-2.1,0-4.2,0-6.2c0-0.7-0.2-0.9-0.9-0.8c-0.7,0.1-1.3,0.1-2,0.1
		c-2.9,0.1-5.7,0.2-8.6,0.2c-0.6,0-0.7,0.2-0.7,0.8c0,1.6-0.1,3.2-0.2,4.7c0,0.5,0.1,0.7,0.6,0.7c1.1,0,2.2,0,3.3,0
		c0.3,0,0.8-0.2,0.9,0.3c0,0.5,0.2,1.1-0.3,1.5c-1.7,1.3-5.1,0.7-6.3-1.2c-2.1-3.3-0.9-8.1,2.6-9.9c2.6-1.4,5.3-1.2,8-0.5
		c0.8,0.2,0.9,0.1,1-0.7c0.1-2,0.2-4,0.4-5.9c0.1-0.6,0-0.9-0.6-1.2c-1.7-0.8-3.6-1-5.5-1.2c-5.1-0.3-9.5,1.3-12.8,5.3
		c-3,3.5-4.2,7.7-4.1,12.2c0.2,5.2,2.5,9.2,7.2,11.7c2.7,1.5,5.7,1.7,8.7,1.3c3.3-0.5,6.4-1.5,8.9-3.9c0.4-0.4,0.5-0.8,0.5-1.3
		C406.1,639,406.1,637.1,406.1,635.1z"/>
	<path d="M447.1,636c-0.3-0.6-0.3-0.8,0.3-1.2c4-2.7,5.5-8.1,3.5-12.4c-1.5-3.3-4.2-5.2-7.6-5.8c-4.9-1-9.8-0.4-14.5,1.1
		c-0.5,0.2-0.5,0.4-0.5,0.8c-0.1,4.4-0.2,8.8-0.4,13.2c0,0,0,0,0,0c-0.1,4.4-0.2,8.7-0.3,13.1c0,0.6,0.1,0.9,0.8,0.9
		c2.4,0,4.9,0,7.3,0c0.5,0,0.6-0.1,0.7-0.6c0.1-2.1,0.2-4.2,0.3-6.2c0.1-1.7,0.1-1.7,1.8-1.8c0.6,0,0.9,0.2,1.1,0.8
		c0.8,2.4,1.7,4.8,2.6,7.2c0.2,0.5,0.4,0.7,1,0.5c2.6-0.5,5.2-1,7.8-1.5c0.5-0.1,0.6-0.2,0.3-0.7C449.9,640.9,448.5,638.4,447.1,636
		z M439.8,630.4c-0.7,0.2-1.4,0.3-2.1,0.4c-0.5,0-0.7-0.1-0.6-0.6c0-1,0-2,0-3.1c0.1,0,0.2,0,0.2,0c0-1.1,0-2.2,0-3.2
		c0-0.5,0.2-0.7,0.7-0.8c2.2-0.4,3.9,0.6,4.4,2.6C443,627.8,442,629.6,439.8,630.4z"/>
	<path d="M375.9,634.7c4-2.8,5.4-8.3,3.3-12.6c-1.7-3.5-4.7-5.2-8.4-5.8c-4.6-0.7-9.2-0.2-13.6,1.3c-0.6,0.2-0.6,0.5-0.6,1
		c-0.1,4.4-0.2,8.8-0.3,13.2c0,0-0.1,0-0.1,0c0,2.2,0,4.3,0,6.5c0,2.2-0.1,4.4-0.1,6.6c0,0.6,0.2,0.8,0.8,0.8c2.4,0,4.8,0,7.2,0
		c0.6,0,0.8-0.2,0.8-0.8c0-2,0.1-4.1,0.2-6.1c0.1-1.7,0.1-1.6,1.8-1.7c0.7,0,1,0.2,1.2,0.8c0.8,2.4,1.7,4.8,2.5,7.2
		c0.2,0.6,0.4,0.7,1,0.6c2.6-0.5,5.1-1,7.7-1.5c0.6-0.1,0.6-0.3,0.4-0.8c-1.4-2.4-2.7-4.8-4.1-7.2
		C375.3,635.5,375.3,635.2,375.9,634.7z M368.4,630.3c-0.9,0.3-2,0.8-2.8,0.3c-0.5-0.3-0.1-1.5-0.1-2.2c0-0.4,0-0.8,0.1-1.4
		c0.1-0.9,0-2.1,0.1-3.3c0-0.4,0.2-0.5,0.5-0.6c2.2-0.4,4,0.5,4.5,2.5C371.4,627.7,370.5,629.5,368.4,630.3z"/>
	<path d="M353.6,617.5c-2.6,0-5.3,0-7.9,0c-0.8,0-0.9,0.2-0.9,0.9c0.4,4.5,0.2,9.1-0.4,13.6c-0.2,2-0.6,4-1.5,5.9
		c-0.3,0.6-0.7,1.2-1.5,1.2c-0.8,0-1.1-0.7-1.4-1.3c-0.6-1.4-0.8-2.9-0.9-4.5c-0.3-4.7,0.4-9.4,1.1-14c0.1-0.5,0-0.7-0.5-0.7
		c-2.7-0.1-5.4-0.2-8.1-0.3c-0.6,0-0.8,0.1-0.9,0.7c-0.5,3.2-0.9,6.4-0.9,9.6c0,0.5,0,1,0,1.6c0,3.6,0.5,7,1.8,10.4
		c2.6,6.5,10.5,8.4,15.8,3.9c2.5-2.1,3.9-4.9,5-7.9c2.1-6,2.5-12.1,2-18.3C354.3,617.5,354.1,617.5,353.6,617.5z"/>
	<path d="M299.9,628.1c-1.4-0.6-2.8-0.7-4.2-0.7c-1.1,0-2.2,0-3.3-0.5c-0.4-0.2-0.7-0.5-0.7-1c0-0.5,0.3-0.9,0.7-1.1
		c0.4-0.2,0.9-0.3,1.3-0.4c2.5-0.4,4.8,0,7.2,0.8c0.6,0.2,0.8,0.2,0.8-0.5c0.1-2.2,0.3-4.4,0.6-6.5c0.1-0.8-0.1-1.1-0.8-1.3
		c-3.2-1.1-6.5-1.5-9.8-0.9c-3.7,0.7-6.7,2.6-8.3,6.2c-1.5,3.5-0.8,7.6,1.8,10c1.5,1.4,3.4,1.9,5.5,1.9c1.1,0,2.2,0,3.2,0.5
		c0.5,0.2,0.9,0.5,0.8,1.1c0,0.5-0.4,0.9-0.8,1.1c-0.3,0.1-0.6,0.3-0.9,0.3c-1.2,0.1-2.5,0.1-3.7-0.1c-2-0.3-3.9-0.9-5.7-1.9
		c-0.3,2.7-0.6,5.3-0.9,7.9c0,0.3,0,0.5,0.3,0.6c3.5,1.5,7,2.8,11,2.3c6.4-0.8,10.5-5.6,9.9-12C303.7,631.4,302.5,629.3,299.9,628.1
		z"/>
	<path d="M426.3,616.5c-5.8,0-11.5,0-17.2,0c-0.6,0-0.8,0.2-0.8,0.8c-0.1,5.5-0.2,10.9-0.3,16.4c-0.1,0-0.2,0-0.2,0
		c0,3.8,0,7.6,0,11.4c0,0.6,0.1,0.8,0.8,0.8c0.7-0.1,1.5,0,2.2-0.1c4.6-0.1,9.2-0.2,13.8-0.3c0.5,0,0.8,0,0.9-0.7
		c0.1-2.5,0.2-5,0.4-7.5c0-0.6-0.1-0.7-0.7-0.7c-1.9,0-3.8,0-5.6,0c-2.4,0-2.4,0-2.2-2.4c0-0.4,0.2-0.6,0.6-0.6
		c1.6-0.2,3.2-0.1,4.8-0.1c0.5,0,0.7-0.1,0.7-0.7c0.1-1.7,0.2-3.4,0.4-5.1c0-0.5-0.1-0.6-0.6-0.6c-1.3,0-2.5,0-3.8,0
		c-1.7,0-1.7,0-1.6-1.6c0-0.1,0-0.2,0-0.3c-0.1-0.6,0.2-0.8,0.8-0.8c2.3-0.1,4.6-0.2,6.8-0.3c0.7,0,1.1-0.2,1.2-1
		c0.1-2,0.2-3.9,0.4-5.8C427,616.7,426.9,616.5,426.3,616.5z"/>
</g>
</svg>
