<?xml version="1.0" encoding="UTF-8"?>
<svg id="Livello_2" data-name="Livello 2" xmlns="http://www.w3.org/2000/svg" viewBox="0 0 460.55 82.99">
  <g id="Livello_1-2" data-name="Livello 1">
    <g>
      <path d="M24.51,81.4V19.49H0V1.6H71.48V19.49h-24.4v61.9H24.51Z"/>
      <path d="M80.03,81.4V1.6h36.37c7.3,0,13.6,1.18,18.92,3.53,5.32,2.36,9.41,5.76,12.26,10.2,2.85,4.45,4.27,9.67,4.27,15.68s-1.43,11.4-4.27,15.73c-2.85,4.33-6.94,7.66-12.26,9.98-5.32,2.32-11.63,3.48-18.92,3.48h-23.94l10.15-9.58v30.78h-22.57Zm22.57-28.16l-10.15-10.49h22.57c4.71,0,8.25-1.03,10.6-3.08,2.35-2.05,3.53-4.94,3.53-8.66s-1.18-6.4-3.53-8.49c-2.36-2.09-5.89-3.13-10.6-3.13h-22.57l10.15-10.37V53.24Zm26.68,28.16l-19.84-29.07h24.05l19.95,29.07h-24.17Z"/>
      <path d="M160.4,81.4v-14.25L207.25,11.4l2.74,8.09h-48.68V1.6h68.74V15.85l-46.97,55.75-2.74-8.09h51.41v17.9h-71.36Z"/>
      <path d="M269.72,82.99c-6.61,0-12.94-.82-18.98-2.45-6.04-1.63-10.93-3.7-14.65-6.21l7.41-16.76c3.57,2.28,7.69,4.16,12.37,5.64,4.67,1.48,9.33,2.22,13.97,2.22,3.19,0,5.72-.27,7.58-.8,1.86-.53,3.23-1.29,4.1-2.28,.87-.99,1.31-2.17,1.31-3.53,0-1.75-.84-3.13-2.51-4.16-1.67-1.03-3.86-1.9-6.56-2.62-2.7-.72-5.62-1.41-8.78-2.05-3.15-.64-6.37-1.5-9.63-2.56-3.27-1.06-6.23-2.47-8.89-4.22-2.66-1.75-4.81-4.03-6.44-6.84-1.64-2.81-2.45-6.34-2.45-10.6,0-4.71,1.29-9.01,3.88-12.88,2.58-3.88,6.5-6.99,11.74-9.35,5.24-2.35,11.78-3.53,19.61-3.53,5.24,0,10.39,.59,15.45,1.77,5.05,1.18,9.52,2.95,13.4,5.3l-6.84,16.64c-3.8-2.13-7.56-3.69-11.29-4.67-3.72-.99-7.33-1.48-10.83-1.48-3.12,0-5.62,.34-7.52,1.03-1.9,.68-3.27,1.56-4.1,2.62-.84,1.07-1.25,2.21-1.25,3.42,0,1.82,.84,3.25,2.51,4.28,1.67,1.03,3.84,1.86,6.5,2.51,2.66,.65,5.6,1.31,8.83,2,3.23,.68,6.44,1.54,9.63,2.57,3.19,1.03,6.14,2.39,8.83,4.1,2.7,1.71,4.88,3.95,6.56,6.73,1.67,2.77,2.51,6.25,2.51,10.43,0,4.64-1.31,8.91-3.93,12.83-2.62,3.92-6.55,7.05-11.8,9.4-5.24,2.36-11.82,3.53-19.72,3.53Z"/>
      <path d="M315.55,81.4V1.6h22.57V63.5h37.96v17.9h-60.53Z"/>
      <path d="M404.12,81.4L370.04,1.6h24.28l28.84,69.08h-14.36L438.21,1.6h22.34l-34.2,79.8h-22.23Z"/>
    </g>
  </g>
</svg>