<?xml version="1.0" encoding="UTF-8"?>
<svg id="Livello_2" data-name="Livello 2" xmlns="http://www.w3.org/2000/svg" viewBox="0 0 81.62 94.32">
  <defs>
    <style>
      .cls-1 {
        fill: white;
      }
    </style>
  </defs>
  <g id="Livello_1-2" data-name="Livello 1">
    <path class="cls-1" d="M33.2,35.63v15.42c-.73,0-1.47,.06-2.19,0-3.89-.37-7.42,.7-10.4,3.11-3.78,3.06-5.52,7.2-5.16,12.05,.17,2.22,.8,4.43,2.33,6.16,1.16,1.31,2.33,2.73,3.79,3.62,4.09,2.49,8.48,3.39,13.07,1.3,1.25-.57,2.54-1.12,3.64-1.92,2.41-1.74,3.9-4.13,4.74-6.99,.99-3.39,.36-6.82,.43-10.22,.12-6.48,.04-12.97,.01-19.45-.02-4.87-.15-9.74-.15-14.61,0-4.04,.13-8.07,.13-12.11,0-3.02-.12-6.04-.19-9.06,0-.4,0-.8,.02-1.2,.1-1.64,.35-1.77,1.96-1.7,1.71,.08,3.43-.07,5.14-.01,1.62,.05,3.23,.23,4.84,.35,.68,.05,1.35,.12,2.03,.09,1.09-.05,1.62,.36,1.81,1.5,.36,2.13,.68,4.31,1.43,6.3,.9,2.38,2.02,4.7,4.15,6.38,1.28,1,2.25,2.4,3.55,3.37,1.33,1,2.84,1.83,4.37,2.48,2.01,.85,4.11,1.49,6.19,2.13,.86,.26,1.8,.26,2.81,.4,0,1.51,0,2.95,0,4.4,0,3.03,0,6.06,.04,9.09,.03,2.02,.03,2.07-2.03,1.82-2.4-.28-4.87-.37-7.18-1.01-2.84-.78-5.57-2-8.3-3.14-1.19-.5-2.24-1.31-3.38-1.95-.84-.47-1.5-.09-1.53,.88-.08,3.01-.21,6.02-.21,9.03,0,4.43,.13,8.87,.17,13.3,.03,3.13,.18,6.28,0,9.4-.24,4.2-.96,8.37-2.82,12.19-2,4.08-4.66,7.68-8.27,10.58-3.37,2.71-7.06,4.66-11.23,5.71-3.23,.81-6.54,1.24-9.85,.85-5.13-.61-9.95-2.21-14.21-5.26-3.13-2.24-5.88-4.79-8-8.09-2.59-4.03-4.2-8.36-4.63-13.08-.33-3.72-.15-7.47,.9-11.09,1.2-4.12,3.16-7.88,6.02-11.09,2.23-2.5,4.63-4.88,7.6-6.53,1.6-.89,3.31-1.62,5.02-2.28,3.62-1.39,7.4-1.79,11.26-1.53,.24,.02,.48-.02,.72,.03,.53,.11,1.06,.25,1.53,.37Z"/>
  </g>
</svg>